# https://github.com/mikedh/trimesh
v 328.04419899 340.40391455 -0.23636658
v 320.10710724 334.32532327 -4.19549423
v 327.95954558 336.31344061 -5.42941343
v 333.98095250 343.75349020 -2.94241538
v 321.68301777 325.99483011 -19.22406054
v 318.37942595 329.49169150 -28.47617446
v 332.22770050 334.18116827 -24.65207307
v 333.63396918 329.87764313 -17.07921672
v 338.48915622 347.88189615 -3.24920633
v 335.36433670 338.69401228 -5.74565112
v 338.16871699 351.98960420 -1.73407636
v 338.73206040 362.77184897 1.28895382
v 341.02796222 357.05430684 -0.36246141
v 341.83624137 367.88028878 5.08752542
v 329.63617514 366.53891806 1.91426507
v 336.92764384 370.83027696 11.25370123
v 315.39159461 358.14072787 19.55626730
v 311.88052771 349.45508038 27.07175068
v 324.74931614 354.18063632 34.41340980
v 327.59136824 362.22644785 25.53350345
v 318.33572143 337.39763344 39.84909815
v 322.43882503 346.89494792 37.31308399
v 308.98127121 342.97080965 30.71592195
v 306.05696804 334.60881754 33.32127949
v 320.75370907 331.55399254 5.94047645
v 312.92800423 326.61634311 1.72294532
v 314.35554543 330.38058740 -0.40955911
v 322.31986046 335.06097072 3.45545592
v 338.23406225 355.31507813 -7.21222610
v 328.99037084 359.76897763 -9.40282061
v 333.41153140 357.85790618 -4.05398026
v 340.81346044 351.53343329 -4.51283017
v 297.52516064 307.49793589 -5.79123942
v 285.72691802 307.67047762 -8.71169575
v 285.96001978 311.77106932 -12.13304358
v 296.45712670 310.96630501 -8.62390004
v 296.39628038 324.34229017 -26.03054407
v 286.36041356 324.13190767 -23.62749550
v 278.94047732 332.98469979 -26.82486713
v 288.60445188 336.00329602 -28.17366602
v 307.81348034 326.58442023 -28.47065992
v 301.44408327 336.28193884 -31.74314099
v 314.33666686 338.18179722 -32.01331422
v 329.09093138 341.42011681 -27.70382709
v 283.46059901 300.61009346 0.05331118
v 291.92999254 299.15790476 3.06891908
v 381.46846022 360.67963910 14.73679572
v 380.01437478 356.84397639 18.27288591
v 377.05091298 357.63389494 17.49253493
v 378.79732854 361.37104945 14.25218351
v 280.53603548 303.12035506 17.77892982
v 276.28891793 309.60007764 22.56130275
v 271.55160952 306.10921391 19.55195603
v 275.36895702 301.08696749 13.79163507
v 287.55215941 305.89074360 22.77677740
v 283.34226029 314.42788853 26.09048357
v 386.21365773 369.54435084 20.35361684
v 385.65455964 367.44508692 16.20356206
v 382.13623875 369.94058535 16.47592823
v 381.97595617 372.09215276 20.94909303
v 339.75985643 351.02664146 -0.39066498
v 335.85710996 344.81848426 2.45181181
v 352.09819009 356.65040755 8.06641340
v 345.47107546 352.25413051 6.58257898
v 344.96635622 356.94882599 2.72770696
v 350.10649679 360.94123165 4.66927648
v 336.94301253 336.73582135 17.94981116
v 328.21987925 333.43595823 12.88121021
v 330.51363082 338.03240683 10.16328395
v 340.81672403 342.29085858 14.24686142
v 326.12008904 322.33375992 18.76612305
v 334.71119182 326.73131874 23.47612810
v 332.53475387 319.95488310 26.38641981
v 327.17093591 317.49029952 21.98126333
v 348.69883720 337.18759791 30.56442325
v 353.13935596 340.29885250 33.65398906
v 353.46983937 338.31705249 35.44815708
v 347.70454429 334.58235946 32.23758325
v 266.30764600 303.50239313 16.79098933
v 270.34052835 300.06881174 9.61232814
v 314.44872500 319.06670958 44.08407540
v 313.73445739 309.69563181 41.07072832
v 323.65146735 310.19815519 47.06948498
v 321.59952804 320.18809861 48.67718147
v 274.69728462 318.76254380 23.16837272
v 269.05769380 314.51510413 21.95667320
v 385.44230675 368.99193370 26.03717764
v 381.50759070 371.29973558 26.65178758
v 307.08529813 348.50678997 -28.72135184
v 325.13475908 349.43131374 -26.57306872
v 292.32946858 346.28384308 -26.75183548
v 281.96297877 344.03099488 -23.15219759
v 273.45470875 341.69372983 -22.51207212
v 347.66185715 349.70261975 11.70185660
v 329.96858368 339.85364652 5.30447680
v 319.73948905 327.82409924 8.21598174
v 319.19598285 303.91083094 22.28040740
v 311.73173179 300.92686922 17.05298454
v 316.22762806 308.46588980 13.05836085
v 321.47193134 309.85036662 18.93476781
v 318.37615531 303.47213276 36.59358080
v 323.65645159 303.87313725 31.86327681
v 330.42863444 306.19159813 36.59571891
v 326.55155414 305.38774831 41.72727201
v 337.73120769 357.98715793 -13.19139058
v 325.62322063 360.31879404 -14.89832692
v 285.44583598 299.20386684 10.66769603
v 280.16156365 299.47433992 6.16724455
v 273.00606231 299.04913417 3.22890832
v 305.27619391 317.50274812 -3.52153467
v 295.77916503 313.26033583 -10.83167530
v 296.96791912 316.23049071 -13.64159393
v 305.16859702 320.27526621 -4.76201447
v 314.42666261 326.72490208 -10.01508619
v 309.10228580 322.36021681 -19.12564687
v 324.79331233 328.48463723 -9.62730625
v 285.05806015 316.92961137 -17.61489322
v 277.59834710 310.44507162 -15.93462931
v 277.20816719 316.90724747 -20.82236696
v 276.40623196 304.42646497 -9.48396229
v 274.92982094 300.09922733 -2.78751958
v 261.65650843 312.12002187 21.60528117
v 276.97347640 323.81899152 -23.94606700
v 340.83455274 334.03620375 -15.17495277
v 347.06598608 338.38558126 -14.03755460
v 346.00888097 339.66384575 -7.28212941
v 340.45965676 335.45972068 -7.78826665
v 347.72657026 371.57402865 9.05802255
v 349.91315453 366.11653408 5.21317885
v 343.61305084 362.69282269 1.49261406
v 305.06798165 306.48373985 1.44218596
v 299.97430100 299.29085735 8.53740294
v 354.01355080 354.68119328 13.68478484
v 377.16232761 373.75833266 20.87676735
v 377.44982546 371.52716086 15.83362965
v 361.39852087 372.16901207 12.00540843
v 361.11366958 375.07418241 17.58527234
v 358.05428361 357.71120910 22.60922665
v 357.22258641 355.86067604 16.74161477
v 358.84880647 356.65618642 18.61578386
v 360.45750604 356.99561137 24.31740673
v 349.66950178 331.10712321 37.60182501
v 344.73859694 327.82478650 34.84425391
v 341.32899708 364.13955926 30.62805856
v 339.90747771 373.13972698 22.41185921
v 330.45833399 368.51224759 18.29698949
v 334.88060081 331.07199841 20.88332557
v 342.64027874 333.53397487 25.97844188
v 341.73872770 330.54275554 28.01537455
v 349.66194477 349.27586152 15.69971068
v 354.49562799 353.23138429 18.79296684
v 352.17263082 349.90394917 20.27086648
v 347.42422310 345.61569974 17.96159319
v 303.49273171 308.52430587 35.23429478
v 308.82813576 300.95447888 30.27677602
v 383.71219829 364.33666250 14.12459535
v 380.68616392 365.90514075 13.88699109
v 326.36028797 327.95762330 15.87244930
v 319.78355648 363.36036230 12.42498518
v 318.67011642 323.62605412 10.55598100
v 335.60596920 331.25610843 49.19678346
v 339.63654575 326.41205556 48.67593324
v 345.22984331 327.79147425 48.64399478
v 343.63127958 331.98815249 50.99046321
v 372.63556044 357.64819606 27.77895068
v 373.64721370 355.88188826 22.96162011
v 376.01484627 355.98771217 22.77391096
v 375.96565199 357.52543640 27.89970698
v 356.71654066 357.56362417 11.70346593
v 355.80043699 361.66694072 7.53713711
v 360.72458556 361.32934757 10.15919073
v 360.11947129 358.22972480 14.45425684
v 355.84501319 367.16280151 7.88942366
v 360.97754128 367.02500552 9.35885078
v 372.91390469 362.41505579 31.10473383
v 374.70027333 368.97577203 30.63949781
v 359.93007658 369.03969203 28.66640996
v 361.52960293 362.25196295 28.66283882
v 293.83504242 332.65104951 27.73662405
v 292.83615263 323.24842160 30.99654361
v 304.88631797 325.04211945 36.74440481
v 316.20882900 326.86751275 43.05252368
v 327.65655998 328.59010325 48.14303752
v 328.21357093 339.58997409 46.41270580
v 303.37339567 318.08851052 37.86299565
v 353.14095458 359.58303952 28.15148066
v 349.64859466 367.39221790 27.56062990
v 348.37265897 362.49820810 30.73970412
v 318.65893548 317.47472027 13.19508257
v 376.74681661 367.35703121 13.20992028
v 273.15804965 346.95920512 -3.38426673
v 270.51245966 341.12077605 7.10837231
v 278.01866553 344.31229559 7.95310613
v 281.50149368 350.69349001 -4.01797134
v 374.88493259 357.49901611 17.14426646
v 375.76022769 361.67106122 13.17194387
v 344.67547883 323.20680222 38.75935188
v 348.78487164 327.01035986 40.85422189
v 348.64935651 326.23719702 44.15193070
v 346.32968317 320.96142346 43.16495585
v 291.71048879 318.17593871 31.33312504
v 330.88712463 310.35859917 50.54903821
v 328.14506759 318.69248837 52.00844593
v 282.26511705 321.98446886 25.81771409
v 282.67445214 330.44933980 23.47256219
v 274.48085973 328.32807791 20.71569836
v 336.96191924 350.11985873 43.04510709
v 296.56400503 339.59187018 25.58986805
v 284.80673487 336.38553658 20.80408002
v 275.17709621 334.05831585 17.28557043
v 267.89747233 332.28724626 15.53566081
v 268.01837176 325.87337227 19.19660679
v 376.36550702 372.29389789 26.49604865
v 379.97265654 367.43678319 31.35894851
v 259.96063560 323.71782738 18.84240644
v 260.41202584 330.65832424 14.09345643
v 287.25221714 342.92294807 16.16067142
v 290.51309150 350.57530555 9.79896611
v 298.58267899 345.64427969 21.11934187
v 302.76080629 353.28471606 15.40827264
v 334.46630417 358.89755739 39.42734831
v 390.54696048 356.13611173 30.91188741
v 382.06537570 360.19482489 31.41427858
v 379.74328973 356.52042244 28.37610328
v 388.55819385 353.02543681 29.70631092
v 377.25268451 361.48997685 31.19795774
v 383.84406513 365.00798097 30.70950104
v 308.15099251 359.60795374 5.50432449
v 356.14761750 353.49336810 23.55542737
v 296.55802680 356.63400907 -4.17541350
v 318.94010949 364.81692829 -3.30177780
v 312.02743155 361.17340414 -11.67375960
v 286.28543906 352.45880430 -15.78689114
v 301.59685097 356.41861038 -20.22552942
v 269.70729578 345.55925726 -14.08035719
v 277.62435997 348.85070416 -13.68862634
v 316.68368760 356.71700173 -21.96186826
v 388.06781593 354.55552046 16.76209301
v 386.19128792 351.70446511 20.67907022
v 265.81727050 344.49476929 -4.36106228
v 334.02340092 332.05367797 -8.73585663
v 312.01729512 314.76525707 6.25448765
v 312.09227520 319.61032921 4.74771529
v 307.08303420 299.90869691 13.72964612
v 311.34865512 307.76912947 7.84447740
v 390.55156111 358.58225533 15.43633617
v 354.69361912 342.57250704 37.92923536
v 353.02027874 342.30623934 38.06625866
v 339.67710342 337.51636280 -21.81907904
v 345.45100321 340.74701544 -20.38833875
v 342.49863333 352.19558283 -21.94978492
v 344.44393142 346.05458926 -23.11517007
v 337.06337712 344.09946264 -25.14321779
v 334.48996988 350.49397302 -24.12332420
v 305.74726436 315.20950477 -2.26116912
v 306.06424361 312.07862960 -0.40366305
v 295.08118181 306.80004074 28.59320085
v 300.92416800 299.72173038 23.73456853
v 354.52624056 371.91725854 11.18109587
v 345.33057167 374.37689760 15.05614756
v 353.12756263 374.41742567 16.65610703
v 358.84950431 374.00947832 23.51560160
v 356.92232601 356.79295497 26.58616371
v 356.02832104 361.27652016 26.50515767
v 302.48035933 319.31347490 -16.27881598
v 307.81888152 324.01341610 -7.38013592
v 339.68484145 341.20491167 -4.84270345
v 343.72088777 344.56538599 -3.58278409
v 343.92864330 340.03875057 21.02496891
v 347.34784858 351.52499393 43.51501159
v 345.37203212 358.84086082 40.47731442
v 350.04794009 343.92655821 24.99468111
v 394.35182929 363.11373675 20.37996337
v 392.65631448 361.08136043 16.67012911
v 350.53064829 373.57767656 22.57028092
v 340.18148543 323.61089558 30.93462587
v 343.30541901 346.61482980 44.64968298
v 351.66650166 346.25329390 42.89765824
v 331.93586107 306.49592293 44.31851915
v 262.99510704 338.66478025 5.18786863
v 379.25657851 354.64065734 23.65537588
v 385.61832357 350.81587072 25.06824532
v 391.91447638 359.74613341 30.10706011
v 393.20902471 363.29382357 25.95220895
v 294.20268181 299.53070993 16.65672572
v 312.51844140 322.85948720 3.72744633
v 328.29449015 355.85289759 -20.37745219
v 339.45953191 356.31131432 -18.05865691
v 353.41274420 346.38538981 27.57212376
v 332.86692825 324.89573861 50.49948659
v 336.79061721 339.57089280 49.36346465
v 345.15088717 339.70821655 51.83532222
v 348.86556699 344.31571216 48.52886638
v 353.12058661 344.88157837 43.31918591
v 395.63148271 356.28113273 30.06989979
v 397.35509179 359.92839341 26.04341199
v 398.50831436 359.80614579 20.50774051
v 396.48842706 358.30827381 16.86691355
v 393.07159150 356.23533396 15.73145914
v 393.93225006 352.54210729 30.59371716
v 391.92825051 349.91758673 29.08602277
v 388.07631059 349.13916131 25.03860804
v 396.14466020 348.73433491 29.62216862
v 400.66882211 350.31690049 28.91572782
v 405.59001318 349.08824824 17.33121366
v 403.80579534 353.57204706 19.90514701
v 405.03498983 351.54730903 21.09570803
v 406.93246411 347.62831066 19.65374640
v 409.20810476 343.41399314 19.53115700
v 408.01556244 344.48869917 16.62731651
v 403.26042377 352.27526901 24.88217219
v 405.91069680 346.79401506 23.65828931
v 403.98462399 345.02642174 26.51854990
v 406.87065924 340.88998320 25.57162119
v 408.78137137 342.36630275 23.12027740
v 402.53999316 348.95147503 27.29903695
v 402.34378367 354.43802256 25.45206138
v 409.43032809 340.58454923 17.83378480
v 410.39314448 340.98117377 19.91405858
v 409.79534602 339.70680472 22.57843003
v 409.56095980 337.33190912 21.15817262
v 399.72302030 354.86622913 16.41459338
v 404.03428159 348.64302578 15.50980679
v 405.59327109 343.25517406 15.56435358
v 407.20586818 339.51748802 16.92141217
v 401.43605852 345.91906744 15.10395667
v 403.23812992 341.89896191 15.77305017
v 404.30539919 338.58261290 17.18213885
v 398.81019925 343.17219715 16.23667832
v 401.16363957 340.19999967 16.96707351
v 392.56881116 351.52529924 16.50639064
v 395.25476242 354.20428108 15.40146416
v 402.39868762 338.12498583 17.33455887
v 407.80940943 336.29959315 20.66076505
v 401.06656812 344.59222090 28.16369407
v 404.34459690 339.40792690 26.05011211
v 399.15271462 343.48423163 27.98952774
v 402.47154656 338.31451003 26.28043871
v 407.23856188 336.64811234 24.87418525
v 408.23172016 338.75523395 24.53086060
v 389.66339536 353.34849513 17.27423905
v 387.70110108 350.44613961 21.27367240
v 389.82841433 348.70136598 20.59473444
v 396.51316454 341.06154549 19.30742298
v 390.06798703 347.10885216 24.27859054
v 393.97475453 346.44555882 27.96525403
v 397.71453155 341.59298551 26.60846888
v 396.30175029 340.57774922 23.96862792
v 400.54606985 337.87437739 24.92680658
v 399.50852862 337.95309418 22.83067289
v 399.64299768 338.37711871 19.32631462
v 403.00199584 335.90045851 22.86339408
v 405.35604017 335.97584005 24.27761160
v 404.75315367 336.23968717 19.91090710
v 401.50027948 336.39322468 21.96825573
v 402.47939156 337.11587334 19.51991218
v 380.18799757 346.33230569 32.93029416
v 378.87835790 341.52118148 36.07110267
v 376.99867116 344.50540430 37.13723421
v 378.03297475 348.51126400 34.53765713
v 386.87975635 354.24919926 40.70950186
v 384.94838991 352.53108315 35.51297836
v 381.91056951 356.25483884 37.97422716
v 382.83772486 357.24547664 44.05930444
v 386.38578602 351.76313960 46.90838852
v 381.74242998 354.40078089 49.62158906
v 377.68969255 359.41010736 44.08366630
v 377.38120688 357.79942151 37.72865700
v 359.17792044 359.14190001 32.06827213
v 358.09761778 361.24888860 37.93446810
v 357.97902814 343.02689049 34.21299519
v 357.99316675 343.27437496 37.91678182
v 382.24195760 349.43221088 33.10126691
v 379.85141424 352.51048706 34.94391155
v 373.37706431 341.03422354 43.29926929
v 374.05464602 341.72085156 38.50095644
v 376.12205360 341.12230419 39.92030766
v 376.87159726 340.55406151 44.85633811
v 359.00816075 352.49157244 28.10352881
v 357.93845154 347.49764560 30.75066899
v 359.46533716 355.78733250 29.24677471
v 373.67427716 343.54252687 48.89791248
v 374.62123249 348.79684127 52.06856832
v 356.62674572 351.82767120 47.28517351
v 357.54766163 346.41046748 45.24363268
v 376.81851900 354.26263678 34.32466764
v 375.58469593 345.17818676 34.87277657
v 376.13926055 349.42949581 32.89503053
v 375.59764187 355.73561099 49.45503246
v 380.75786790 347.25474959 51.74515392
v 390.96922231 334.08948068 42.87330135
v 383.07565014 339.76740982 47.53131250
v 380.56133838 337.87700767 43.98210407
v 388.07775402 331.60755783 40.22473872
v 378.67640133 342.59600327 49.22359479
v 385.17459342 344.53587856 48.86050843
v 387.22319082 337.58510390 28.64211162
v 385.56948501 333.12920713 32.14222005
v 389.80819047 340.81960722 28.08531399
v 356.55106935 358.42179502 43.95652666
v 394.50902022 345.64815328 34.76227546
v 391.97674048 343.56517894 29.72493317
v 378.36123879 338.40974170 39.80298377
v 385.96808323 330.92060947 36.22673867
v 393.13480600 337.60127800 43.38192968
v 394.17200686 343.95105206 40.80153094
v 396.84353308 334.70745313 40.38098043
v 398.03757268 339.74217528 37.22468401
v 397.32700431 341.87651390 31.36054121
v 393.57289054 340.79737440 27.69852708
v 390.66345640 338.89702710 27.05354296
v 394.34516911 331.26747953 40.27971956
v 390.82571052 329.29008551 38.39748001
v 387.40847265 330.09044089 35.11143042
v 394.98082194 326.79101848 36.04482558
v 398.78841992 328.83328810 35.21602453
v 396.83793640 327.89752808 17.72508988
v 397.38980060 332.03589180 21.46873728
v 398.85600052 330.52049884 22.70459365
v 398.47490396 326.69808333 19.32930180
v 399.27595741 335.47843261 25.90208829
v 399.85806451 333.16138584 26.12578595
v 400.40471598 331.54966356 30.16188766
v 399.34538333 327.57253419 25.91775045
v 398.20859604 325.04257481 29.41898592
v 398.32268020 321.22803184 25.69300149
v 399.65778312 323.45425510 22.19047381
v 399.47809952 328.40876538 31.69973937
v 398.38139845 323.71792962 17.79989169
v 396.79671977 322.91981093 16.30479104
v 401.20463988 333.99148688 32.27259911
v 394.75343154 338.35231412 25.51420078
v 394.75519071 332.28876883 20.28332223
v 394.02966749 327.28363032 16.93553613
v 394.36592320 321.65152440 16.52728503
v 391.23782086 330.54502964 20.29502612
v 391.52273624 325.85234365 17.62639729
v 392.26217816 321.33014408 17.76892773
v 388.05590582 327.96761943 21.93250679
v 389.21244896 323.50025297 19.63794732
v 387.60663535 335.06917294 27.60741330
v 390.54631858 337.52095092 25.59348713
v 390.52116967 321.62245367 19.07408071
v 398.01927125 319.38992353 18.52412139
v 395.13265914 318.49004346 18.40020217
v 398.76574580 320.60712948 19.42770318
v 397.16453798 324.03477072 30.75927046
v 396.75860172 320.05436558 26.16567757
v 394.91932920 322.64907884 31.23883806
v 394.96926624 318.76806166 26.07484133
v 397.15209927 317.83114717 22.38631626
v 398.19257912 318.88196416 22.10325910
v 388.15877392 336.21768434 28.51097967
v 386.70021264 332.50777997 31.93711075
v 386.15738883 331.66635894 31.37959059
v 387.39658678 324.74503489 25.66390363
v 387.43347834 328.93994626 34.72293555
v 391.53600589 326.57771086 35.80543919
v 392.30722798 322.29364903 31.20720081
v 389.26091399 322.57075660 29.07277791
v 393.14326537 318.14885979 26.51232941
v 390.60328531 319.60606138 26.24850647
v 388.61904350 321.42329465 22.73642732
v 393.70752363 316.67708964 22.54728099
v 395.79570175 317.02723939 22.29446427
v 393.25710645 318.65903759 19.06708735
v 391.45654904 317.90638930 23.25819569
v 390.84291686 319.53546939 20.39924433
v 369.93845240 333.75635038 39.83307571
v 367.77274421 328.92296521 41.27804131
v 367.10637464 329.97179157 42.23703181
v 368.99020946 334.65395127 41.18722276
v 376.84856307 337.16796451 48.19667544
v 375.74636760 337.60990928 43.82789483
v 373.06062519 340.18163232 46.30256509
v 373.06913262 340.62050815 51.18493441
v 377.19257373 332.93726157 51.36640255
v 372.50271448 337.32602849 55.93487836
v 368.60497451 342.84217137 51.91166790
v 369.88123502 341.85490085 46.68391661
v 356.84588299 344.12302668 44.35912106
v 355.21212272 344.39991687 50.13102797
v 372.93536250 336.30321902 41.08758546
v 371.04070612 337.80599036 42.67116957
v 365.20548349 325.12023376 47.66240237
v 365.92476172 326.83510293 43.87746768
v 366.59931858 326.05170961 45.25122340
v 367.17430591 324.74795843 48.96278662
v 355.35381944 337.33130615 37.34079813
v 352.91597320 332.65980053 39.41649741
v 357.06779047 340.96205737 39.84086780
v 365.46426320 326.88706030 53.31112926
v 366.14174872 332.16178152 57.62992935
v 352.45659925 332.59373495 54.44666724
v 352.21381905 328.74260258 50.66381193
v 369.42414996 339.16768203 42.88691661
v 366.54123161 330.63145389 40.58457664
v 368.11483994 335.38538509 40.05244410
v 366.80621885 338.95506731 55.95585145
v 371.31988803 330.56168572 56.45899263
v 379.85291760 317.02359188 43.69698414
v 371.44191584 324.39504349 52.23349861
v 368.09592089 323.55588620 48.21184074
v 376.36904954 316.13595170 41.85430094
v 369.13887635 325.97028470 53.54241995
v 374.63748473 328.05525097 53.65108669
v 375.67383910 325.58515752 32.74955394
v 373.55190260 321.49519118 35.33827742
v 378.56467042 328.29418065 33.68128036
v 353.21125702 340.13840015 54.57350389
v 351.99887077 328.01773621 44.82817118
v 384.17827847 328.36683106 37.68925826
v 381.37098873 329.12814784 34.92483955
v 367.05548893 325.27387017 44.71763451
v 373.76933386 317.52575228 38.94330912
v 382.72769382 320.34535690 44.45812632
v 384.33295797 325.63727576 42.48056765
v 384.29935420 316.55879910 40.24166576
v 386.45351004 321.41131844 37.89965450
v 386.11849964 324.82524452 33.83479369
v 382.62140820 326.54977161 32.03164142
v 379.54622180 326.39417655 31.36519830
v 379.92124679 314.56333233 39.86364891
v 376.45446149 315.18524407 38.84679414
v 374.51073936 318.10833511 37.97890472
v 377.97805218 312.97728437 36.85400076
v 382.73111646 313.25202785 34.72124441
v 379.14018263 316.45956966 19.79813800
v 381.37613246 318.96112429 23.95696840
v 381.67670316 317.95097534 24.40563406
v 379.81246165 315.21786286 20.14636656
v 384.95508953 320.51109710 28.89147619
v 384.44736913 318.84334186 28.14382718
v 384.67181740 316.31220722 30.77516862
v 381.76358233 313.60076756 26.20100174
v 378.76699661 310.93418535 29.84039709
v 377.04033513 309.53624020 25.48445352
v 379.88772604 311.40540219 21.95453466
v 382.37211824 313.28531944 32.69047713
v 378.53279564 313.19021064 18.39225770
v 378.39557033 314.07530440 16.66415077
v 386.02754167 317.40885223 32.68625129
v 382.76307194 324.42520095 28.21588976
v 379.80924632 321.07037666 23.13474490
v 377.44680263 318.81798702 18.77608405
v 375.48431533 315.69521938 16.98692404
v 376.52939424 321.89073018 23.62501196
v 374.92923156 319.32955257 19.97312468
v 373.28133351 316.47117827 18.26411502
v 373.75001812 321.26899922 24.78749792
v 372.71324216 318.67730064 21.76502551
v 376.48321959 324.79498651 31.10316137
v 379.48361690 325.60083699 29.24091229
v 372.17299337 316.59309762 20.06923382
v 377.12955351 310.14207630 18.04629637
v 373.46863641 311.20243235 18.39357536
v 377.76000600 310.79825512 19.52022348
v 377.73003655 310.60938136 31.14757609
v 375.38212850 308.34703762 25.90516945
v 375.15096699 310.93346678 31.92188281
v 373.13600596 308.67876245 26.80661982
v 375.40297998 307.97976290 21.86739046
v 376.17580415 308.65441732 22.03553400
v 376.58746305 324.52953239 32.52556729
v 374.36361244 321.34215574 35.12194882
v 373.99184405 322.36537947 33.95739639
v 370.87247617 318.81719673 27.21022631
v 373.49058069 318.94402995 36.69213225
v 374.72463620 314.39789693 35.94568565
v 372.60381720 312.67780384 31.36516135
v 370.73723987 315.21117141 29.58649792
v 371.12779424 310.40650338 26.92088865
v 370.62116554 312.99329005 26.66036981
v 370.25027421 316.62010243 23.90581237
v 371.52313620 310.54332492 23.02958644
v 373.09900573 308.57273585 22.36693344
v 371.63025753 312.96447156 19.60101250
v 370.51072142 312.42510942 23.57923535
v 370.64225272 314.35566698 21.01053732
v 351.98573907 329.34627392 41.68592771
v 360.12975737 318.83815207 48.36212917
v 359.14319313 314.88333757 48.21931940
v 359.09424369 314.61153663 48.83156433
v 358.94320594 318.89867869 48.91705821
v 362.93012394 321.90347331 58.02749257
v 362.73101581 322.62293014 53.62479924
v 359.58587565 323.78248571 55.85510741
v 359.19123705 323.06790534 60.11592382
v 362.13555692 318.02361308 61.33632145
v 358.76535613 318.36457898 63.00387770
v 355.90848184 323.04396602 60.06732528
v 356.68504684 324.26686062 55.86292598
v 342.70608050 325.43485254 51.25246498
v 339.39597708 323.60357477 54.60532962
v 337.02746776 308.17955273 46.55060927
v 338.94613830 309.29691141 42.42683330
v 345.37786750 310.61036307 45.96402475
v 343.45761987 308.56293737 49.08896065
v 361.53534582 321.36146870 50.44605603
v 359.19348295 322.32229444 51.40334873
v 357.11517932 308.33434210 54.29467961
v 357.68587402 310.90660084 50.59097143
v 358.59488039 310.93903097 49.85466021
v 358.96723551 307.61502701 52.68919208
v 341.63096411 313.15179247 40.94644461
v 343.06967438 316.79488277 41.02764110
v 346.30936045 318.27694098 43.33043580
v 347.09523616 314.45451456 44.74206679
v 346.53632824 322.94892575 46.09521595
v 356.29905989 308.77923322 58.27325986
v 355.68350831 312.23604557 62.38803574
v 338.59804702 310.43383124 55.90070544
v 340.33291775 308.43458447 52.33073306
v 358.42427273 322.74137528 52.52859275
v 357.76294002 314.92702056 49.09784770
v 359.08790999 318.79835524 49.97524870
v 354.80215603 318.32889221 63.11968091
v 359.44551522 311.94852930 61.20619980
v 365.87000898 305.98277900 52.11718697
v 361.36201640 307.29147386 56.10993849
v 359.53753347 307.19214197 52.06848653
v 363.67536167 305.77635234 50.04702214
v 359.45765955 308.20768364 56.89317433
v 362.72753718 311.16909764 59.23684619
v 362.62038546 317.03297334 45.68828298
v 361.52842847 312.01236455 46.50625317
v 364.30766933 319.33997778 46.67016973
v 337.57016651 317.97750586 57.08934429
v 368.13475319 319.33176347 51.95966426
v 366.50640212 319.96989215 48.54002959
v 359.05650986 310.87805658 49.36456138
v 361.80853326 307.88496701 47.92539898
v 368.05139490 309.14488083 54.28638413
v 368.13951860 315.35586715 55.47038593
v 370.89574539 307.71139031 50.20857662
v 371.11269488 313.61513059 51.71471157
v 369.11978059 318.20001083 48.05955717
v 365.86646804 318.55788649 46.86826225
v 363.52739412 317.67585492 46.04790071
v 367.23143538 304.69940167 49.45097837
v 365.01923018 304.46583805 48.91302015
v 362.58381812 307.20470127 47.55275721
v 368.11073627 303.98446822 46.74341461
v 369.76297575 307.20466711 44.45290914
v 360.52692813 311.09323551 37.87542313
v 362.44333089 313.16749342 40.71658342
v 363.28891910 312.55020720 40.32258879
v 361.34592884 311.04283708 37.38488377
v 366.23168468 315.32996037 43.66613281
v 366.14795607 313.71359515 42.63489600
v 368.95446631 312.00056492 43.92307045
v 366.19483191 309.98682675 39.89984926
v 366.88712607 305.28095509 41.04003040
v 364.70959057 304.30816400 38.04889600
v 364.44641826 308.47884775 37.14736331
v 369.15180044 307.91327601 43.26249072
v 360.93496403 309.52736157 35.31395189
v 359.79681034 309.24718295 34.74814402
v 370.87009560 313.32316897 45.24362281
v 362.92533702 316.11979308 45.25088834
v 359.88436275 313.08911016 41.02193264
v 358.17820041 310.57299540 37.33283346
v 358.08373499 307.85846822 35.05068477
v 358.15688714 312.35805335 42.38329613
v 356.47652084 309.74622973 38.24887055
v 356.58981252 307.05359611 36.20258808
v 356.92400652 310.03291263 43.98413149
v 355.93015397 308.12393615 39.74097676
v 359.36846171 312.11885527 47.46314875
v 360.36763787 314.78466048 46.22595383
v 356.31723356 306.55873836 37.66516305
v 361.51935406 306.25980426 34.00295787
v 359.27987265 305.13858050 35.00043200
v 362.83526810 306.84902843 34.59084746
v 366.77800638 304.08938293 41.67076316
v 364.06847442 302.96260582 38.16187890
v 365.56290848 302.72205901 42.78946090
v 362.54110542 302.04127542 38.97135243
v 362.43644587 303.58278714 35.49309150
v 363.57276179 304.78876746 35.84964865
v 361.65424042 314.63785182 45.71332344
v 361.49538435 311.44719918 45.93886513
v 360.52176688 308.57190133 47.65662422
v 357.74718446 306.28219345 45.26986718
v 362.73705469 304.58373753 48.97212823
v 365.74537904 303.09192162 48.12166740
v 363.29047001 301.98773259 43.91224256
v 360.39308986 302.64786662 44.94723621
v 360.67297743 301.99038084 39.57251171
v 358.47270695 302.75874585 40.97853874
v 356.51022385 305.23972159 41.06217275
v 359.00083740 303.24749494 37.00675630
v 360.35322868 303.06431634 35.99569413
v 357.84685864 304.71518775 36.14901057
v 357.82463198 303.52651703 38.20139108
v 356.97202531 304.80201285 37.94797457
v 336.64432061 308.89221583 49.99454045
v 350.50842105 358.09966746 -9.96159698
v 350.43056234 355.87522727 -5.39089075
v 356.89415433 342.79743984 -7.93046505
v 354.88662932 346.92509722 -3.42987031
v 358.24191370 342.36540214 -13.90530337
v 355.83073518 348.99557886 -20.85216538
v 356.89462650 344.64277474 -18.51174457
v 352.56446955 351.61141673 -2.72344890
v 351.13902596 358.17107041 -15.16954544
v 353.24718398 354.53872408 -20.27541438
v 358.63557884 360.30658485 -13.79827369
v 360.72054625 356.06870657 -18.84696159
v 363.41406080 350.35047593 -19.66335224
v 363.45290792 345.30860511 -16.73312378
v 363.36761027 342.74703895 -13.14113947
v 356.71656768 359.26669492 -8.05155802
v 356.39800207 356.69590629 -3.70228693
v 357.08889611 351.36330118 -1.53788268
v 363.75926370 360.15199811 -4.77591118
v 372.86162464 360.50562459 -6.87796005
v 386.31493496 350.13134540 -9.16902244
v 380.84332241 348.80151455 -11.24525978
v 381.10882915 351.52000538 -11.29516716
v 386.21483573 352.54670040 -9.92041091
v 376.79815382 350.37920431 -13.40736318
v 377.64357213 352.20581680 -12.43183164
v 375.38181296 356.38222305 -11.05747590
v 380.14395267 357.13687347 -9.75916799
v 374.95348027 359.30942297 -7.46996588
v 377.84155067 359.92232862 -5.32028160
v 384.76957316 357.93136871 -8.21759906
v 388.82296371 354.79471347 -8.94362437
v 388.67348797 358.23705580 -6.70540151
v 389.72219035 352.73911090 -7.09764249
v 375.01374503 357.49359814 -12.65797574
v 372.20076624 345.82999911 -14.06221202
v 379.10692374 345.84907945 -10.23082137
v 385.20379157 347.67932704 -6.99501154
v 389.09960205 351.09501477 -4.73104552
v 377.22186292 343.94644630 -7.10045945
v 382.62620835 346.53252939 -3.99784075
v 385.78168991 350.11994378 -1.65096965
v 375.05919753 344.49717990 -3.19911684
v 380.38546669 347.42897181 -1.25653437
v 364.16583962 343.11556432 -6.81312688
v 367.94801978 342.67952821 -11.42101985
v 383.36766577 350.00863415 -0.57722696
v 390.21275707 357.78585786 -4.87309455
v 389.37945849 355.99123596 -2.04013815
v 375.86803279 360.79584744 -3.04348756
v 382.33063812 361.22304064 -4.19195688
v 381.21709573 361.02673250 -1.58374207
v 373.12621404 360.06625393 -0.57530251
v 380.09992401 360.10265755 0.75069985
v 386.30233728 360.61063909 -2.12377143
v 386.00147316 360.65494487 -4.64475018
v 360.95990236 342.60509041 -7.89203093
v 358.21059137 346.14553669 -3.57227135
v 361.41552207 346.83850860 -2.60264969
v 371.95924954 348.08182863 0.56697352
v 361.08778169 352.10091951 -0.18548860
v 362.14619536 357.45157428 -1.62174700
v 371.70417528 357.66433202 1.66147208
v 370.90822490 353.28032915 2.32626884
v 379.01580318 357.34335920 2.38403521
v 378.40810013 354.60609461 2.47342131
v 379.15187685 350.28584007 1.31656243
v 383.70389859 356.58775465 1.63037887
v 385.23213454 359.19356197 0.34733510
v 386.26336200 353.92712383 0.18606569
v 381.87609295 354.68557306 1.80817441
v 383.21358373 352.45171920 0.83144700
v 334.48838554 307.80449110 39.04131207
v 337.34430049 311.93102639 36.34818794
v 332.49802609 309.44378129 33.30975339
v 326.10239771 306.61627782 27.94938777
v 317.66477982 301.86054103 27.05715315
v 327.31413987 311.77572841 24.75812358
v 333.84565332 314.31373194 30.57618019
v 340.12531466 318.14568939 35.37301597
v 322.01240181 315.38581955 17.85458412
f 2 3 1
f 1 3 4
f 5 6 8
f 8 6 7
f 9 4 10
f 10 4 3
f 12 13 11
f 11 13 9
f 14 12 16
f 16 12 15
f 18 19 17
f 17 19 20
f 22 23 21
f 21 23 24
f 26 27 25
f 25 27 28
f 30 31 29
f 29 31 32
f 33 34 36
f 36 34 35
f 37 38 40
f 40 38 39
f 41 42 6
f 6 42 43
f 6 43 7
f 7 43 44
f 45 34 46
f 46 34 33
f 48 49 47
f 47 49 50
f 52 53 51
f 51 53 54
f 56 52 55
f 55 52 51
f 58 59 57
f 57 59 60
f 61 62 4
f 4 62 1
f 64 65 63
f 63 65 66
f 68 69 67
f 67 69 70
f 72 73 71
f 71 73 74
f 76 77 75
f 75 77 78
f 53 79 54
f 54 79 80
f 82 83 81
f 81 83 84
f 85 86 52
f 52 86 53
f 57 60 87
f 87 60 88
f 89 90 43
f 43 90 44
f 43 42 89
f 89 42 91
f 40 39 92
f 92 39 93
f 94 70 64
f 64 70 69
f 13 61 9
f 9 61 4
f 25 28 69
f 69 28 95
f 96 25 68
f 68 25 69
f 98 99 97
f 97 99 100
f 101 102 104
f 104 102 103
f 106 30 105
f 105 30 29
f 51 54 107
f 107 54 108
f 54 80 108
f 108 80 109
f 111 112 110
f 110 112 113
f 115 5 114
f 114 5 116
f 115 41 5
f 5 41 6
f 36 35 111
f 111 35 117
f 35 118 117
f 117 118 119
f 34 120 35
f 35 120 118
f 34 45 120
f 120 45 121
f 125 126 124
f 124 126 127
f 128 129 14
f 14 129 130
f 33 131 46
f 46 131 132
f 133 94 63
f 63 94 64
f 134 135 137
f 137 135 136
f 139 140 138
f 138 140 141
f 77 142 78
f 78 142 143
f 144 145 20
f 20 145 146
f 148 149 147
f 147 149 72
f 151 152 150
f 150 152 153
f 82 101 83
f 83 101 104
f 101 82 155
f 155 82 154
f 156 157 58
f 58 157 59
f 158 68 147
f 147 68 67
f 159 146 15
f 15 146 16
f 68 158 96
f 96 158 160
f 129 66 130
f 130 66 65
f 162 163 161
f 161 163 164
f 166 167 165
f 165 167 168
f 170 171 169
f 169 171 172
f 174 171 173
f 173 171 170
f 176 177 175
f 175 177 178
f 180 181 179
f 179 181 24
f 182 183 21
f 21 183 184
f 81 185 82
f 82 185 154
f 186 187 188
f 188 187 144
f 158 71 160
f 160 71 189
f 190 135 157
f 157 135 59
f 169 172 139
f 139 172 140
f 147 72 158
f 158 72 71
f 192 193 191
f 191 193 194
f 167 166 49
f 49 166 195
f 196 190 50
f 50 190 157
f 197 198 200
f 200 198 199
f 21 24 182
f 182 24 181
f 146 159 20
f 20 159 17
f 182 181 81
f 81 181 185
f 201 185 180
f 180 185 181
f 202 203 83
f 83 203 84
f 205 206 204
f 204 206 85
f 207 22 184
f 184 22 21
f 179 24 208
f 208 24 23
f 208 209 179
f 179 209 205
f 209 210 205
f 205 210 206
f 212 206 211
f 211 206 210
f 179 205 180
f 180 205 204
f 213 176 88
f 88 176 214
f 86 85 212
f 212 85 206
f 193 217 218
f 217 219 218
f 218 219 220
f 219 18 220
f 220 18 17
f 19 221 20
f 20 221 144
f 222 223 225
f 225 223 224
f 175 226 176
f 176 226 214
f 227 87 214
f 214 87 88
f 220 17 228
f 228 17 159
f 134 213 60
f 60 213 88
f 138 229 151
f 151 229 152
f 193 192 210
f 210 192 211
f 230 194 218
f 218 194 193
f 231 232 228
f 228 232 230
f 233 234 91
f 91 234 89
f 235 236 93
f 93 236 92
f 230 232 234
f 234 232 237
f 47 238 48
f 48 238 239
f 240 191 235
f 235 191 236
f 5 8 116
f 116 8 241
f 242 243 189
f 189 243 160
f 244 245 98
f 98 245 99
f 156 246 47
f 47 246 238
f 76 247 77
f 77 247 248
f 250 125 249
f 249 125 124
f 252 253 251
f 251 253 254
f 111 110 36
f 36 110 255
f 256 33 255
f 255 33 36
f 257 258 154
f 154 258 155
f 63 169 133
f 133 169 139
f 66 170 63
f 63 170 169
f 173 170 129
f 129 170 66
f 129 128 173
f 173 128 259
f 128 260 259
f 259 260 261
f 213 134 262
f 262 134 137
f 263 264 186
f 186 264 187
f 112 265 113
f 113 265 266
f 11 267 268
f 234 233 230
f 230 233 194
f 153 269 70
f 70 269 67
f 175 178 165
f 165 178 141
f 150 153 94
f 94 153 70
f 271 221 270
f 270 221 207
f 269 153 272
f 272 153 152
f 121 45 109
f 109 45 108
f 47 50 156
f 156 50 157
f 57 273 58
f 58 273 274
f 145 275 260
f 260 275 261
f 276 149 143
f 143 149 78
f 148 269 75
f 75 269 272
f 207 277 270
f 270 277 278
f 195 196 49
f 49 196 50
f 59 135 60
f 60 135 134
f 83 104 202
f 202 104 279
f 149 148 78
f 78 148 75
f 247 278 248
f 248 278 277
f 183 182 84
f 84 182 81
f 48 239 281
f 281 239 282
f 227 223 283
f 283 223 222
f 223 226 224
f 224 226 168
f 281 282 224
f 224 282 225
f 165 168 175
f 175 168 226
f 264 263 138
f 138 263 229
f 14 16 128
f 128 16 260
f 220 228 218
f 218 228 230
f 87 227 284
f 284 227 283
f 260 16 145
f 145 16 146
f 244 98 258
f 258 98 155
f 58 274 156
f 156 274 246
f 107 285 51
f 51 285 55
f 243 286 160
f 160 286 96
f 234 237 89
f 89 237 90
f 46 132 107
f 107 132 285
f 253 252 249
f 249 252 250
f 286 26 96
f 96 26 25
f 106 105 287
f 287 105 288
f 272 152 289
f 289 152 229
f 138 151 139
f 139 151 133
f 183 290 161
f 161 290 162
f 291 292 277
f 277 292 293
f 151 150 133
f 133 150 94
f 262 275 177
f 177 275 187
f 144 187 145
f 145 187 275
f 273 57 284
f 284 57 87
f 174 136 190
f 190 136 135
f 111 117 112
f 112 117 38
f 117 119 38
f 38 119 123
f 112 38 265
f 265 38 37
f 287 288 254
f 254 288 251
f 228 159 231
f 231 159 15
f 223 227 226
f 226 227 214
f 147 67 148
f 148 67 269
f 224 168 281
f 281 168 167
f 199 163 200
f 200 163 162
f 45 46 108
f 108 46 107
f 281 167 48
f 48 167 49
f 161 164 291
f 291 164 292
f 38 123 39
f 293 294 277
f 277 294 248
f 284 283 296
f 296 283 295
f 284 296 273
f 273 296 297
f 274 273 298
f 298 273 297
f 246 274 299
f 299 274 298
f 283 222 295
f 295 222 300
f 222 225 300
f 300 225 301
f 301 225 302
f 302 225 282
f 303 304 300
f 300 304 295
f 306 307 305
f 305 307 308
f 309 310 308
f 308 310 305
f 308 307 312
f 312 307 311
f 313 314 312
f 312 314 315
f 311 316 312
f 312 316 313
f 317 304 311
f 311 304 316
f 315 309 312
f 312 309 308
f 318 319 321
f 321 319 320
f 319 318 309
f 309 318 310
f 311 307 317
f 317 307 306
f 306 297 317
f 317 297 296
f 306 322 297
f 297 322 298
f 305 323 306
f 306 323 322
f 323 305 324
f 324 305 310
f 304 317 295
f 295 317 296
f 318 325 310
f 310 325 324
f 323 324 326
f 326 324 327
f 324 325 327
f 327 325 328
f 326 327 329
f 329 327 330
f 329 331 326
f 326 331 332
f 333 330 328
f 328 330 327
f 323 326 322
f 322 326 332
f 322 332 298
f 298 332 299
f 325 318 334
f 334 318 321
f 313 316 335
f 335 316 304
f 335 336 313
f 313 336 314
f 304 303 335
f 335 303 337
f 336 335 338
f 338 335 337
f 336 339 314
f 314 339 340
f 246 299 238
f 238 299 341
f 239 342 282
f 282 342 302
f 342 239 341
f 341 239 238
f 341 331 342
f 342 331 343
f 331 329 343
f 343 329 344
f 342 343 302
f 302 343 345
f 341 299 331
f 331 299 332
f 346 301 345
f 345 301 302
f 346 303 301
f 301 303 300
f 347 337 346
f 346 337 303
f 347 346 348
f 348 346 345
f 349 347 350
f 350 347 348
f 343 344 345
f 345 344 348
f 344 351 348
f 348 351 350
f 337 347 338
f 338 347 349
f 353 338 352
f 352 338 349
f 352 355 354
f 354 355 356
f 352 349 355
f 355 349 350
f 352 354 353
f 353 354 334
f 353 334 339
f 339 334 321
f 339 336 353
f 353 336 338
f 329 330 344
f 344 330 351
f 356 351 333
f 333 351 330
f 356 355 351
f 351 355 350
f 354 356 328
f 328 356 333
f 328 325 354
f 354 325 334
f 309 315 319
f 319 315 320
f 320 340 321
f 321 340 339
f 320 315 340
f 340 315 314
f 137 136 261
f 261 136 259
f 140 166 141
f 141 166 165
f 172 171 195
f 195 171 196
f 171 174 196
f 196 174 190
f 178 177 264
f 264 177 187
f 172 195 140
f 140 195 166
f 137 261 262
f 262 261 275
f 178 264 141
f 141 264 138
f 262 177 213
f 213 177 176
f 136 174 259
f 259 174 173
f 358 359 357
f 357 359 360
f 362 363 361
f 361 363 364
f 361 364 365
f 365 364 366
f 367 368 370
f 370 368 369
f 76 371 247
f 247 371 372
f 373 374 362
f 362 374 363
f 376 377 375
f 375 377 378
f 289 229 380
f 380 229 379
f 381 379 263
f 263 379 229
f 383 384 382
f 382 384 385
f 386 368 374
f 374 368 363
f 76 289 371
f 371 289 380
f 377 376 359
f 359 376 387
f 388 386 360
f 360 386 374
f 389 383 366
f 366 383 390
f 392 393 391
f 391 393 394
f 383 382 390
f 390 382 395
f 396 365 390
f 390 365 366
f 389 366 367
f 367 366 364
f 357 397 358
f 358 397 398
f 373 399 357
f 357 399 397
f 389 367 400
f 400 367 370
f 382 385 375
f 375 385 372
f 357 360 373
f 373 360 374
f 361 401 362
f 362 401 402
f 387 388 359
f 359 388 360
f 363 368 364
f 364 368 367
f 358 398 403
f 403 398 404
f 396 392 405
f 405 392 391
f 392 395 393
f 393 395 378
f 393 403 394
f 394 403 404
f 375 378 382
f 382 378 395
f 365 396 406
f 406 396 405
f 362 402 373
f 373 402 399
f 271 270 400
f 400 270 384
f 401 361 406
f 406 361 365
f 381 369 386
f 386 369 368
f 392 396 395
f 395 396 390
f 393 378 403
f 403 378 377
f 403 377 358
f 358 377 359
f 406 405 408
f 408 405 407
f 406 408 401
f 401 408 409
f 401 409 402
f 402 409 410
f 402 410 399
f 399 410 411
f 405 391 407
f 407 391 412
f 391 394 412
f 412 394 413
f 394 404 413
f 413 404 414
f 415 416 412
f 412 416 407
f 418 419 417
f 417 419 420
f 421 422 418
f 418 422 419
f 419 422 424
f 424 422 423
f 425 426 424
f 424 426 427
f 423 428 424
f 424 428 425
f 427 420 424
f 424 420 419
f 420 429 417
f 417 429 430
f 423 422 431
f 431 422 421
f 421 409 431
f 431 409 408
f 421 432 409
f 409 432 410
f 418 433 421
f 421 433 432
f 434 433 417
f 417 433 418
f 431 416 423
f 423 416 428
f 416 431 407
f 407 431 408
f 435 434 430
f 430 434 417
f 433 434 436
f 436 434 437
f 434 435 437
f 437 435 438
f 436 437 439
f 439 437 440
f 439 441 436
f 436 441 442
f 438 443 437
f 437 443 440
f 436 442 433
f 433 442 432
f 432 442 410
f 410 442 411
f 435 430 445
f 445 430 444
f 430 429 444
f 444 429 446
f 425 428 447
f 447 428 416
f 426 425 448
f 448 425 447
f 416 415 447
f 447 415 449
f 447 449 448
f 448 449 450
f 451 452 448
f 448 452 426
f 446 452 444
f 444 452 451
f 399 411 397
f 397 411 453
f 398 454 404
f 404 454 414
f 454 398 453
f 453 398 397
f 453 441 454
f 454 441 455
f 441 439 455
f 455 439 456
f 454 455 414
f 414 455 457
f 441 453 442
f 442 453 411
f 458 413 457
f 457 413 414
f 458 415 413
f 413 415 412
f 458 459 415
f 415 459 449
f 459 458 460
f 460 458 457
f 461 459 462
f 462 459 460
f 455 456 457
f 457 456 460
f 456 463 460
f 460 463 462
f 459 461 449
f 449 461 450
f 465 450 464
f 464 450 461
f 464 467 466
f 466 467 468
f 464 461 467
f 467 461 462
f 464 466 465
f 465 466 445
f 465 445 451
f 451 445 444
f 451 448 465
f 465 448 450
f 439 440 456
f 456 440 463
f 468 463 443
f 443 463 440
f 468 467 463
f 463 467 462
f 466 468 438
f 438 468 443
f 438 435 466
f 466 435 445
f 420 427 429
f 429 427 446
f 446 427 452
f 452 427 426
f 370 369 188
f 188 369 186
f 371 376 372
f 372 376 375
f 380 379 387
f 387 379 388
f 379 381 388
f 388 381 386
f 385 384 278
f 278 384 270
f 380 387 371
f 371 387 376
f 400 370 271
f 271 370 188
f 385 278 372
f 372 278 247
f 400 384 389
f 389 384 383
f 369 381 186
f 186 381 263
f 221 271 144
f 144 271 188
f 221 19 207
f 207 19 22
f 19 18 22
f 22 18 23
f 18 219 23
f 23 219 208
f 469 470 472
f 472 470 471
f 474 475 473
f 473 475 476
f 473 476 477
f 477 476 478
f 480 481 479
f 479 481 482
f 483 484 474
f 474 484 475
f 486 487 485
f 485 487 488
f 489 490 77
f 77 490 142
f 491 489 248
f 248 489 77
f 493 494 492
f 492 494 495
f 496 480 484
f 484 480 475
f 486 497 487
f 487 497 471
f 498 496 472
f 472 496 484
f 499 493 478
f 478 493 500
f 501 502 504
f 504 502 503
f 493 492 500
f 500 492 505
f 506 477 500
f 500 477 478
f 499 478 479
f 479 478 476
f 469 507 470
f 470 507 508
f 483 509 469
f 469 509 507
f 479 482 499
f 499 482 510
f 492 495 485
f 485 495 511
f 483 469 484
f 484 469 472
f 473 512 474
f 474 512 513
f 497 498 471
f 471 498 472
f 475 480 476
f 476 480 479
f 470 508 514
f 514 508 515
f 506 502 516
f 516 502 501
f 503 502 488
f 488 502 505
f 514 515 503
f 503 515 504
f 485 488 492
f 492 488 505
f 477 506 517
f 517 506 516
f 474 513 483
f 483 513 509
f 510 292 494
f 494 292 164
f 512 473 517
f 517 473 477
f 491 481 496
f 496 481 480
f 502 506 505
f 505 506 500
f 503 488 514
f 514 488 487
f 514 487 470
f 470 487 471
f 517 516 519
f 519 516 518
f 517 519 512
f 512 519 520
f 512 520 513
f 513 520 521
f 513 521 509
f 509 521 522
f 516 501 518
f 518 501 523
f 501 504 523
f 523 504 524
f 524 504 525
f 525 504 515
f 526 527 523
f 523 527 518
f 529 530 528
f 528 530 531
f 532 533 529
f 529 533 530
f 530 533 535
f 535 533 534
f 536 537 535
f 535 537 538
f 534 539 535
f 535 539 536
f 538 531 535
f 535 531 530
f 540 541 531
f 531 541 528
f 533 532 534
f 534 532 542
f 532 520 542
f 542 520 519
f 532 543 520
f 520 543 521
f 529 544 532
f 532 544 543
f 544 529 545
f 545 529 528
f 534 542 539
f 539 542 527
f 527 542 518
f 518 542 519
f 541 546 528
f 528 546 545
f 547 544 548
f 548 544 545
f 546 549 545
f 545 549 548
f 550 547 551
f 551 547 548
f 547 550 553
f 553 550 552
f 549 554 548
f 548 554 551
f 544 547 543
f 543 547 553
f 543 553 521
f 521 553 522
f 546 541 556
f 556 541 555
f 541 540 555
f 555 540 557
f 536 539 558
f 558 539 527
f 537 536 559
f 559 536 558
f 527 526 558
f 558 526 560
f 559 558 561
f 561 558 560
f 559 562 537
f 537 562 563
f 557 563 555
f 555 563 562
f 509 522 507
f 507 522 564
f 508 565 515
f 515 565 525
f 565 508 564
f 564 508 507
f 564 552 565
f 565 552 566
f 552 550 566
f 566 550 567
f 565 566 525
f 525 566 568
f 564 522 552
f 552 522 553
f 569 524 568
f 568 524 525
f 569 526 524
f 524 526 523
f 570 560 569
f 569 560 526
f 570 569 571
f 571 569 568
f 572 570 573
f 573 570 571
f 566 567 568
f 568 567 571
f 567 574 571
f 571 574 573
f 570 572 560
f 560 572 561
f 576 561 575
f 575 561 572
f 575 578 577
f 577 578 579
f 575 572 578
f 578 572 573
f 575 577 576
f 576 577 556
f 576 556 562
f 562 556 555
f 562 559 576
f 576 559 561
f 550 551 567
f 567 551 574
f 579 574 554
f 554 574 551
f 579 578 574
f 574 578 573
f 579 554 577
f 577 554 549
f 549 546 577
f 577 546 556
f 531 538 540
f 540 538 557
f 557 538 563
f 563 538 537
f 481 294 482
f 482 294 293
f 580 486 511
f 511 486 485
f 490 489 497
f 497 489 498
f 489 491 498
f 498 491 496
f 163 495 164
f 164 495 494
f 580 490 486
f 486 490 497
f 482 293 510
f 510 293 292
f 495 163 511
f 511 163 199
f 494 493 510
f 510 493 499
f 481 491 294
f 294 491 248
f 582 583 581
f 581 583 584
f 586 587 585
f 585 587 588
f 585 588 589
f 589 588 590
f 592 593 591
f 591 593 594
f 595 596 598
f 598 596 597
f 599 600 586
f 586 600 587
f 601 602 604
f 604 602 603
f 605 606 608
f 608 606 607
f 609 607 200
f 200 607 606
f 610 611 613
f 613 611 612
f 600 614 587
f 587 614 592
f 596 605 597
f 597 605 608
f 602 615 603
f 603 615 583
f 616 614 584
f 584 614 600
f 611 618 617
f 617 618 590
f 620 621 619
f 619 621 622
f 610 623 611
f 611 623 618
f 624 589 618
f 618 589 590
f 617 590 591
f 591 590 588
f 581 625 582
f 582 625 626
f 599 627 581
f 581 627 625
f 591 594 617
f 617 594 628
f 601 610 598
f 598 610 613
f 581 584 599
f 599 584 600
f 585 629 586
f 586 629 630
f 615 616 583
f 583 616 584
f 587 592 588
f 588 592 591
f 582 626 631
f 631 626 632
f 624 620 633
f 633 620 619
f 621 620 604
f 604 620 623
f 631 632 621
f 621 632 622
f 610 601 623
f 623 601 604
f 589 624 634
f 634 624 633
f 586 630 599
f 599 630 627
f 203 202 628
f 628 202 612
f 629 585 634
f 634 585 589
f 609 593 614
f 614 593 592
f 620 624 623
f 623 624 618
f 631 621 603
f 603 621 604
f 582 631 583
f 583 631 603
f 634 633 636
f 636 633 635
f 634 636 629
f 629 636 637
f 629 637 630
f 630 637 638
f 630 638 627
f 627 638 639
f 633 619 635
f 635 619 640
f 619 622 640
f 640 622 641
f 641 622 642
f 642 622 632
f 644 635 643
f 643 635 640
f 645 646 648
f 648 646 647
f 649 650 646
f 646 650 647
f 647 650 652
f 652 650 651
f 652 653 655
f 655 653 654
f 651 656 652
f 652 656 653
f 655 648 652
f 652 648 647
f 648 657 645
f 645 657 658
f 650 649 651
f 651 649 659
f 649 637 659
f 659 637 636
f 649 660 637
f 637 660 638
f 661 660 646
f 646 660 649
f 662 661 645
f 645 661 646
f 651 659 656
f 656 659 644
f 644 659 635
f 635 659 636
f 663 662 658
f 658 662 645
f 664 661 665
f 665 661 662
f 663 666 662
f 662 666 665
f 667 664 668
f 668 664 665
f 664 667 670
f 670 667 669
f 666 671 665
f 665 671 668
f 661 664 660
f 660 664 670
f 660 670 638
f 638 670 639
f 658 672 663
f 663 672 673
f 658 657 672
f 672 657 674
f 653 656 675
f 675 656 644
f 653 675 654
f 654 675 676
f 675 644 677
f 677 644 643
f 676 675 678
f 678 675 677
f 679 680 676
f 676 680 654
f 674 680 672
f 672 680 679
f 627 639 625
f 625 639 681
f 626 682 632
f 632 682 642
f 681 682 625
f 625 682 626
f 669 683 681
f 681 683 682
f 667 684 669
f 669 684 683
f 682 683 642
f 642 683 685
f 681 639 669
f 669 639 670
f 686 641 685
f 685 641 642
f 641 686 640
f 640 686 643
f 686 687 643
f 643 687 677
f 687 686 688
f 688 686 685
f 689 687 690
f 690 687 688
f 683 684 685
f 685 684 688
f 684 691 688
f 688 691 690
f 687 689 677
f 677 689 678
f 693 678 692
f 692 678 689
f 692 695 694
f 694 695 696
f 692 689 695
f 695 689 690
f 692 694 693
f 693 694 673
f 693 673 679
f 679 673 672
f 679 676 693
f 693 676 678
f 684 667 691
f 691 667 668
f 696 691 671
f 671 691 668
f 696 695 691
f 691 695 690
f 694 696 666
f 666 696 671
f 666 663 694
f 694 663 673
f 648 655 657
f 657 655 674
f 674 655 680
f 680 655 654
f 593 162 594
f 594 162 290
f 598 597 601
f 601 597 602
f 615 608 616
f 616 608 607
f 607 609 616
f 616 609 614
f 697 595 613
f 613 595 598
f 597 608 602
f 602 608 615
f 594 290 628
f 628 290 203
f 628 612 617
f 617 612 611
f 593 609 162
f 162 609 200
f 105 29 698
f 698 29 699
f 268 126 701
f 701 126 700
f 126 125 700
f 700 125 702
f 252 703 250
f 250 703 704
f 32 268 705
f 705 268 701
f 288 105 706
f 706 105 698
f 29 32 699
f 699 32 705
f 707 251 706
f 706 251 288
f 250 704 125
f 125 704 702
f 703 252 707
f 707 252 251
f 706 708 707
f 707 708 709
f 707 709 703
f 703 709 710
f 703 710 704
f 704 710 711
f 704 711 702
f 702 711 712
f 706 698 708
f 708 698 713
f 698 699 713
f 713 699 714
f 699 705 714
f 714 705 715
f 717 708 716
f 716 708 713
f 719 720 718
f 718 720 721
f 722 723 719
f 719 723 720
f 724 725 723
f 723 725 720
f 724 726 725
f 725 726 727
f 728 721 725
f 725 721 720
f 721 728 729
f 729 728 730
f 729 731 721
f 721 731 718
f 724 723 732
f 732 723 722
f 722 710 732
f 732 710 709
f 722 733 710
f 710 733 711
f 719 734 722
f 722 734 733
f 734 719 735
f 735 719 718
f 724 732 726
f 726 732 717
f 717 732 708
f 708 732 709
f 731 736 718
f 718 736 735
f 737 734 738
f 738 734 735
f 736 739 735
f 735 739 738
f 740 737 741
f 741 737 738
f 737 740 743
f 743 740 742
f 739 744 738
f 738 744 741
f 734 737 733
f 733 737 743
f 733 743 711
f 711 743 712
f 736 731 746
f 746 731 745
f 731 729 745
f 745 729 730
f 727 726 747
f 747 726 717
f 748 727 749
f 749 727 747
f 747 717 750
f 750 717 716
f 749 747 751
f 751 747 750
f 749 752 748
f 748 752 753
f 730 753 745
f 745 753 752
f 728 725 748
f 748 725 727
f 730 728 753
f 753 728 748
f 700 702 754
f 754 702 712
f 705 701 715
f 715 701 755
f 754 755 700
f 700 755 701
f 742 756 754
f 754 756 755
f 740 757 742
f 742 757 756
f 755 756 715
f 715 756 758
f 754 712 742
f 742 712 743
f 759 714 758
f 758 714 715
f 714 759 713
f 713 759 716
f 759 760 716
f 716 760 750
f 760 759 761
f 761 759 758
f 762 760 763
f 763 760 761
f 756 757 758
f 758 757 761
f 757 764 761
f 761 764 763
f 760 762 750
f 750 762 751
f 766 751 765
f 765 751 762
f 767 765 769
f 769 765 768
f 765 762 768
f 768 762 763
f 765 767 766
f 766 767 746
f 766 746 752
f 752 746 745
f 752 749 766
f 766 749 751
f 757 740 764
f 764 740 741
f 769 764 744
f 744 764 741
f 769 768 764
f 764 768 763
f 767 769 739
f 739 769 744
f 739 736 767
f 767 736 746
f 219 217 208
f 208 217 209
f 209 217 210
f 210 217 193
f 198 580 199
f 199 580 511
f 76 75 289
f 289 75 272
f 277 207 291
f 291 207 184
f 290 183 203
f 203 183 84
f 490 580 142
f 142 580 198
f 142 198 143
f 143 198 197
f 149 276 72
f 72 276 73
f 104 103 279
f 279 103 770
f 770 596 279
f 279 596 595
f 605 596 771
f 771 596 770
f 771 770 772
f 772 770 103
f 772 103 773
f 773 103 102
f 155 774 101
f 101 774 102
f 773 102 97
f 97 102 774
f 775 773 100
f 100 773 97
f 773 775 772
f 772 775 776
f 772 776 771
f 771 776 777
f 200 606 197
f 197 606 777
f 189 71 778
f 778 71 74
f 97 774 98
f 98 774 155
f 183 161 184
f 184 161 291
f 777 276 197
f 197 276 143
f 777 606 771
f 771 606 605
f 613 612 697
f 697 612 202
f 595 697 279
f 279 697 202
f 73 276 776
f 776 276 777
f 776 775 73
f 73 775 74
f 100 778 775
f 775 778 74
f 778 100 189
f 189 100 99
f 245 242 99
f 99 242 189
f 131 33 256
f 28 1 95
f 95 1 62
f 27 2 28
f 28 2 1
f 265 115 266
f 266 115 114
f 95 62 69
f 69 62 64
f 62 61 64
f 64 61 65
f 61 13 65
f 65 13 130
f 13 12 130
f 130 12 14
f 31 11 32
f 32 11 268
f 15 12 31
f 31 12 11
f 31 30 15
f 15 30 231
f 30 106 231
f 231 106 232
f 287 237 106
f 106 237 232
f 254 90 287
f 287 90 237
f 253 44 254
f 254 44 90
f 253 249 44
f 44 249 7
f 267 127 268
f 268 127 126
f 10 3 241
f 241 3 116
f 3 2 116
f 116 2 114
f 2 27 114
f 114 27 266
f 27 26 266
f 266 26 113
f 26 286 113
f 113 286 110
f 286 243 110
f 110 243 255
f 243 242 255
f 255 242 256
f 242 245 256
f 256 245 131
f 245 244 131
f 131 244 132
f 265 37 115
f 115 37 41
f 41 37 42
f 42 37 40
f 92 91 40
f 40 91 42
f 236 233 92
f 92 233 91
f 191 194 236
f 236 194 233
f 258 285 244
f 244 285 132
f 257 55 258
f 258 55 285
f 257 154 201
f 201 154 185
f 56 201 204
f 204 201 180
f 55 257 56
f 56 257 201
f 204 85 56
f 56 85 52
f 86 122 53
f 53 122 79
f 212 215 86
f 86 215 122
f 211 216 212
f 212 216 215
f 192 280 211
f 211 280 216
f 191 240 192
f 192 240 280
f 249 124 7
f 7 124 8
f 124 127 8
f 8 127 241
f 127 267 241
f 241 267 10
f 10 267 9
f 9 267 11

